<?xml version="1.0" standalone="no"?>
<!DOCTYPE svg PUBLIC "-//W3C//DTD SVG 20010904//EN"
 "http://www.w3.org/TR/2001/REC-SVG-20010904/DTD/svg10.dtd">
<svg version="1.0" xmlns="http://www.w3.org/2000/svg"
 width="540.000000pt" height="540.000000pt" viewBox="0 0 540.000000 540.000000"
 preserveAspectRatio="xMidYMid meet">
<metadata>
Created by potrace 1.14, written by Peter Selinger 2001-2017
</metadata>
<g transform="translate(0.000000,540.000000) scale(0.100000,-0.100000)"
fill="#000000" stroke="none">
<path d="M2080 4268 c-684 -66 -1269 -514 -1515 -1158 -37 -96 -71 -214 -80
-275 -7 -51 -14 -92 -20 -130 -3 -16 -9 -100 -12 -186 l-6 -157 29 -13 c31
-15 33 -27 19 -99 -45 -242 -146 -412 -309 -521 -63 -42 -56 -47 33 -24 120
31 229 94 335 194 32 31 55 47 49 36 -5 -11 -20 -41 -33 -66 l-24 -46 23 -74
c73 -234 263 -420 539 -528 56 -22 183 -57 242 -66 19 -3 46 -7 60 -10 109
-20 311 -23 354 -6 143 57 192 237 96 353 -46 56 -107 80 -206 84 -120 3 -197
13 -287 35 -72 18 -187 62 -187 72 0 2 481 4 1070 5 589 0 1070 -3 1070 -7 0
-4 -31 -55 -70 -114 -91 -140 -91 -141 -97 -202 -16 -166 171 -292 319 -215
61 31 74 45 136 140 154 237 260 462 302 638 7 30 17 55 24 56 99 26 335 112
416 152 256 126 465 311 607 539 107 170 215 460 263 700 5 28 11 59 14 70 63
289 74 418 40 476 -35 60 -66 74 -229 105 -75 14 -272 13 -335 -1 -195 -46
-313 -177 -359 -400 -32 -156 -114 -340 -201 -449 -67 -84 -167 -173 -179
-160 -5 5 -22 45 -37 89 -36 102 -126 279 -194 381 -286 426 -763 717 -1278
779 -86 11 -290 12 -382 3z"/>
</g>
</svg>
